<mxfile host="app.diagrams.net" agent="Mozilla/5.0 (Windows NT 10.0; Win64; x64) AppleWebKit/537.36 (KHTML, like Gecko) Chrome/131.0.0.0 Safari/537.36" version="24.8.4">
  <diagram id="C5RBs43oDa-KdzZeNtuy" name="Page-1">
    <mxGraphModel dx="880" dy="1629" grid="1" gridSize="10" guides="1" tooltips="1" connect="1" arrows="1" fold="1" page="1" pageScale="1" pageWidth="827" pageHeight="1169" math="0" shadow="0">
      <root>
        <mxCell id="WIyWlLk6GJQsqaUBKTNV-0" />
        <mxCell id="WIyWlLk6GJQsqaUBKTNV-1" parent="WIyWlLk6GJQsqaUBKTNV-0" />
        <mxCell id="xDo69KHjv8QRunsJBPLD-2" value="SalasCine&lt;div&gt;&lt;br&gt;&lt;/div&gt;" style="swimlane;fontStyle=1;align=center;verticalAlign=top;childLayout=stackLayout;horizontal=1;startSize=26;horizontalStack=0;resizeParent=1;resizeParentMax=0;resizeLast=0;collapsible=1;marginBottom=0;whiteSpace=wrap;html=1;" parent="WIyWlLk6GJQsqaUBKTNV-1" vertex="1">
          <mxGeometry x="190" y="-1120" width="190" height="210" as="geometry">
            <mxRectangle x="100" y="550" width="100" height="40" as="alternateBounds" />
          </mxGeometry>
        </mxCell>
        <mxCell id="xDo69KHjv8QRunsJBPLD-3" value="- capacidadPersonas: int&lt;div&gt;&lt;br&gt;&lt;div&gt;- peliculasPresentadas: String&lt;/div&gt;&lt;/div&gt;&lt;div&gt;&lt;br&gt;&lt;/div&gt;&lt;div&gt;-capacidadSalas: int&amp;nbsp;&lt;/div&gt;" style="text;strokeColor=none;fillColor=none;align=left;verticalAlign=top;spacingLeft=4;spacingRight=4;overflow=hidden;rotatable=0;points=[[0,0.5],[1,0.5]];portConstraint=eastwest;whiteSpace=wrap;html=1;" parent="xDo69KHjv8QRunsJBPLD-2" vertex="1">
          <mxGeometry y="26" width="190" height="84" as="geometry" />
        </mxCell>
        <mxCell id="xDo69KHjv8QRunsJBPLD-4" value="" style="line;strokeWidth=1;fillColor=none;align=left;verticalAlign=middle;spacingTop=-1;spacingLeft=3;spacingRight=3;rotatable=0;labelPosition=right;points=[];portConstraint=eastwest;strokeColor=inherit;" parent="xDo69KHjv8QRunsJBPLD-2" vertex="1">
          <mxGeometry y="110" width="190" height="8" as="geometry" />
        </mxCell>
        <mxCell id="xDo69KHjv8QRunsJBPLD-5" value="+ crearSalaCine()&lt;div&gt;&lt;br&gt;&lt;/div&gt;&lt;div&gt;+ presentacionPeliculas()&lt;/div&gt;&lt;div&gt;&lt;br&gt;&lt;/div&gt;&lt;div&gt;+ tamanoDisponibleSala()&lt;br&gt;&lt;div&gt;&lt;br&gt;&lt;/div&gt;&lt;/div&gt;" style="text;strokeColor=none;fillColor=none;align=left;verticalAlign=top;spacingLeft=4;spacingRight=4;overflow=hidden;rotatable=0;points=[[0,0.5],[1,0.5]];portConstraint=eastwest;whiteSpace=wrap;html=1;" parent="xDo69KHjv8QRunsJBPLD-2" vertex="1">
          <mxGeometry y="118" width="190" height="92" as="geometry" />
        </mxCell>
        <mxCell id="xDo69KHjv8QRunsJBPLD-7" value="SalaGym" style="swimlane;fontStyle=1;align=center;verticalAlign=top;childLayout=stackLayout;horizontal=1;startSize=26;horizontalStack=0;resizeParent=1;resizeParentMax=0;resizeLast=0;collapsible=1;marginBottom=0;whiteSpace=wrap;html=1;" parent="WIyWlLk6GJQsqaUBKTNV-1" vertex="1">
          <mxGeometry x="430" y="-1120" width="190" height="210" as="geometry" />
        </mxCell>
        <mxCell id="xDo69KHjv8QRunsJBPLD-8" value="-reservaEntrenador: bool&lt;div&gt;&lt;br&gt;&lt;/div&gt;&lt;div&gt;- eligirHorarioReserva: String&lt;/div&gt;&lt;div&gt;&lt;br&gt;&lt;/div&gt;&lt;div&gt;-reservaEntrenador: bool&lt;/div&gt;" style="text;strokeColor=none;fillColor=none;align=left;verticalAlign=top;spacingLeft=4;spacingRight=4;overflow=hidden;rotatable=0;points=[[0,0.5],[1,0.5]];portConstraint=eastwest;whiteSpace=wrap;html=1;" parent="xDo69KHjv8QRunsJBPLD-7" vertex="1">
          <mxGeometry y="26" width="190" height="84" as="geometry" />
        </mxCell>
        <mxCell id="xDo69KHjv8QRunsJBPLD-9" value="" style="line;strokeWidth=1;fillColor=none;align=left;verticalAlign=middle;spacingTop=-1;spacingLeft=3;spacingRight=3;rotatable=0;labelPosition=right;points=[];portConstraint=eastwest;strokeColor=inherit;" parent="xDo69KHjv8QRunsJBPLD-7" vertex="1">
          <mxGeometry y="110" width="190" height="8" as="geometry" />
        </mxCell>
        <mxCell id="xDo69KHjv8QRunsJBPLD-10" value="+ crearSalaGym()&lt;div&gt;&lt;br&gt;&lt;/div&gt;&lt;div&gt;+reservacionEntrenador()&lt;/div&gt;&lt;div&gt;&lt;br&gt;&lt;/div&gt;&lt;div&gt;+ elegirHorarioGym()&lt;/div&gt;" style="text;strokeColor=none;fillColor=none;align=left;verticalAlign=top;spacingLeft=4;spacingRight=4;overflow=hidden;rotatable=0;points=[[0,0.5],[1,0.5]];portConstraint=eastwest;whiteSpace=wrap;html=1;" parent="xDo69KHjv8QRunsJBPLD-7" vertex="1">
          <mxGeometry y="118" width="190" height="92" as="geometry" />
        </mxCell>
        <mxCell id="xDo69KHjv8QRunsJBPLD-12" value="SalaBaile" style="swimlane;fontStyle=1;align=center;verticalAlign=top;childLayout=stackLayout;horizontal=1;startSize=26;horizontalStack=0;resizeParent=1;resizeParentMax=0;resizeLast=0;collapsible=1;marginBottom=0;whiteSpace=wrap;html=1;" parent="WIyWlLk6GJQsqaUBKTNV-1" vertex="1">
          <mxGeometry x="190" y="-860" width="190" height="210" as="geometry" />
        </mxCell>
        <mxCell id="xDo69KHjv8QRunsJBPLD-13" value="- elegirHorarioReserva: String&lt;div&gt;&lt;br&gt;&lt;/div&gt;&lt;div&gt;- cupoMaximo: int (30)&lt;/div&gt;&lt;div&gt;&lt;br&gt;&lt;/div&gt;&lt;div&gt;- reservaEspacio: bool&lt;/div&gt;" style="text;strokeColor=none;fillColor=none;align=left;verticalAlign=top;spacingLeft=4;spacingRight=4;overflow=hidden;rotatable=0;points=[[0,0.5],[1,0.5]];portConstraint=eastwest;whiteSpace=wrap;html=1;" parent="xDo69KHjv8QRunsJBPLD-12" vertex="1">
          <mxGeometry y="26" width="190" height="84" as="geometry" />
        </mxCell>
        <mxCell id="xDo69KHjv8QRunsJBPLD-14" value="" style="line;strokeWidth=1;fillColor=none;align=left;verticalAlign=middle;spacingTop=-1;spacingLeft=3;spacingRight=3;rotatable=0;labelPosition=right;points=[];portConstraint=eastwest;strokeColor=inherit;" parent="xDo69KHjv8QRunsJBPLD-12" vertex="1">
          <mxGeometry y="110" width="190" height="8" as="geometry" />
        </mxCell>
        <mxCell id="xDo69KHjv8QRunsJBPLD-15" value="+ crearSalaBaile()&lt;div&gt;&lt;br&gt;&lt;/div&gt;&lt;div&gt;+ reservacionEspaciosBaile()&lt;/div&gt;&lt;div&gt;&lt;br&gt;&lt;/div&gt;&lt;div&gt;elegirHorario()&lt;/div&gt;" style="text;strokeColor=none;fillColor=none;align=left;verticalAlign=top;spacingLeft=4;spacingRight=4;overflow=hidden;rotatable=0;points=[[0,0.5],[1,0.5]];portConstraint=eastwest;whiteSpace=wrap;html=1;" parent="xDo69KHjv8QRunsJBPLD-12" vertex="1">
          <mxGeometry y="118" width="190" height="92" as="geometry" />
        </mxCell>
        <mxCell id="xDo69KHjv8QRunsJBPLD-17" value="SalaYoga&lt;div&gt;&lt;br&gt;&lt;/div&gt;" style="swimlane;fontStyle=1;align=center;verticalAlign=top;childLayout=stackLayout;horizontal=1;startSize=26;horizontalStack=0;resizeParent=1;resizeParentMax=0;resizeLast=0;collapsible=1;marginBottom=0;whiteSpace=wrap;html=1;" parent="WIyWlLk6GJQsqaUBKTNV-1" vertex="1">
          <mxGeometry x="440" y="-860" width="180" height="210" as="geometry" />
        </mxCell>
        <mxCell id="xDo69KHjv8QRunsJBPLD-18" value="- elegirHorarioReserva: String&lt;div&gt;&lt;br&gt;&lt;/div&gt;&lt;div&gt;- cupoMaximo: int (30)&lt;/div&gt;&lt;div&gt;&lt;br&gt;&lt;/div&gt;&lt;div&gt;- reservaEspacio: bool&lt;/div&gt;" style="text;strokeColor=none;fillColor=none;align=left;verticalAlign=top;spacingLeft=4;spacingRight=4;overflow=hidden;rotatable=0;points=[[0,0.5],[1,0.5]];portConstraint=eastwest;whiteSpace=wrap;html=1;" parent="xDo69KHjv8QRunsJBPLD-17" vertex="1">
          <mxGeometry y="26" width="180" height="84" as="geometry" />
        </mxCell>
        <mxCell id="xDo69KHjv8QRunsJBPLD-19" value="" style="line;strokeWidth=1;fillColor=none;align=left;verticalAlign=middle;spacingTop=-1;spacingLeft=3;spacingRight=3;rotatable=0;labelPosition=right;points=[];portConstraint=eastwest;strokeColor=inherit;" parent="xDo69KHjv8QRunsJBPLD-17" vertex="1">
          <mxGeometry y="110" width="180" height="8" as="geometry" />
        </mxCell>
        <mxCell id="xDo69KHjv8QRunsJBPLD-20" value="+ crearSalaBaile()&lt;div&gt;&lt;br&gt;&lt;/div&gt;&lt;div&gt;+ reservacionEspaciosBaile()&lt;/div&gt;&lt;div&gt;&lt;br&gt;&lt;/div&gt;&lt;div&gt;elegirHorario()&lt;/div&gt;" style="text;strokeColor=none;fillColor=none;align=left;verticalAlign=top;spacingLeft=4;spacingRight=4;overflow=hidden;rotatable=0;points=[[0,0.5],[1,0.5]];portConstraint=eastwest;whiteSpace=wrap;html=1;" parent="xDo69KHjv8QRunsJBPLD-17" vertex="1">
          <mxGeometry y="118" width="180" height="92" as="geometry" />
        </mxCell>
        <mxCell id="xDo69KHjv8QRunsJBPLD-21" value="ReservasBarista&lt;div&gt;&lt;br&gt;&lt;/div&gt;" style="swimlane;fontStyle=1;align=center;verticalAlign=top;childLayout=stackLayout;horizontal=1;startSize=26;horizontalStack=0;resizeParent=1;resizeParentMax=0;resizeLast=0;collapsible=1;marginBottom=0;whiteSpace=wrap;html=1;" parent="WIyWlLk6GJQsqaUBKTNV-1" vertex="1">
          <mxGeometry x="190" y="-610" width="240" height="290" as="geometry" />
        </mxCell>
        <mxCell id="xDo69KHjv8QRunsJBPLD-22" value="&lt;font style=&quot;font-size: 12px;&quot;&gt;&lt;span style=&quot;white-space: pre;&quot;&gt;empleado: String&lt;br&gt;&lt;/span&gt;&lt;span style=&quot;white-space: pre;&quot;&gt;idEmpleado: String&lt;br&gt;&lt;/span&gt;&lt;span style=&quot;white-space: pre;&quot;&gt;bebidaReservada: String&lt;br&gt;&lt;/span&gt;&lt;span style=&quot;white-space: pre;&quot;&gt;ifBebidaReservada: String&lt;br&gt;&lt;/span&gt;&lt;span style=&quot;white-space: pre;&quot;&gt;numBebidasReserva: int&lt;br&gt;&lt;/span&gt;&lt;span style=&quot;white-space: pre;&quot;&gt;reservasRealizadas: ReservasBarista[]&lt;/span&gt;&lt;/font&gt;&lt;div style=&quot;&quot;&gt;&lt;span style=&quot;font-family: __JetBrains_Mono_3c557b, __JetBrains_Mono_Fallback_3c557b; white-space: pre;&quot;&gt;&lt;br&gt;&lt;/span&gt;&lt;/div&gt;" style="text;strokeColor=none;fillColor=none;align=left;verticalAlign=top;spacingLeft=4;spacingRight=4;overflow=hidden;rotatable=0;points=[[0,0.5],[1,0.5]];portConstraint=eastwest;whiteSpace=wrap;html=1;" parent="xDo69KHjv8QRunsJBPLD-21" vertex="1">
          <mxGeometry y="26" width="240" height="114" as="geometry" />
        </mxCell>
        <mxCell id="xDo69KHjv8QRunsJBPLD-23" value="" style="line;strokeWidth=1;fillColor=none;align=left;verticalAlign=middle;spacingTop=-1;spacingLeft=3;spacingRight=3;rotatable=0;labelPosition=right;points=[];portConstraint=eastwest;strokeColor=inherit;" parent="xDo69KHjv8QRunsJBPLD-21" vertex="1">
          <mxGeometry y="140" width="240" height="18" as="geometry" />
        </mxCell>
        <mxCell id="xDo69KHjv8QRunsJBPLD-24" value="&lt;font style=&quot;font-size: 12px;&quot;&gt;&lt;span style=&quot;white-space: pre;&quot;&gt;+ ReservasBarista()&lt;br&gt;&lt;/span&gt;&lt;span style=&quot;white-space: pre;&quot;&gt; + precargarReservas() &lt;/span&gt;&lt;/font&gt;&lt;div style=&quot;&quot;&gt;&lt;font style=&quot;font-size: 12px;&quot;&gt;&lt;span style=&quot;white-space: pre;&quot;&gt;+ desplegarMenu()&lt;br&gt;&lt;/span&gt;&lt;span style=&quot;white-space: pre;&quot;&gt;+ seleccionBebida()&lt;br&gt;&lt;/span&gt;&lt;span style=&quot;white-space: pre;&quot;&gt;+ iniciarMetodos()&lt;br&gt;&lt;/span&gt;&lt;span style=&quot;white-space: pre;&quot;&gt;+ ingresarReservaV2&lt;br&gt;&lt;/span&gt;&lt;span style=&quot;white-space: pre;&quot;&gt;+ modificarReserva() &lt;br&gt;&lt;/span&gt;&lt;span style=&quot;white-space: pre;&quot;&gt;+ listarReservas()&lt;br&gt;&lt;/span&gt;&lt;/font&gt;&lt;div&gt;&lt;span style=&quot;background-color: rgb(9, 9, 11); color: rgb(227, 234, 242); font-family: __JetBrains_Mono_3c557b, __JetBrains_Mono_Fallback_3c557b; white-space: pre;&quot;&gt;&lt;br&gt;&lt;/span&gt;&lt;/div&gt;&lt;/div&gt;" style="text;strokeColor=none;fillColor=none;align=left;verticalAlign=top;spacingLeft=4;spacingRight=4;overflow=hidden;rotatable=0;points=[[0,0.5],[1,0.5]];portConstraint=eastwest;whiteSpace=wrap;html=1;" parent="xDo69KHjv8QRunsJBPLD-21" vertex="1">
          <mxGeometry y="158" width="240" height="132" as="geometry" />
        </mxCell>
        <mxCell id="xDo69KHjv8QRunsJBPLD-28" value="Extends" style="endArrow=block;endSize=16;endFill=0;html=1;rounded=0;entryX=0.032;entryY=0.045;entryDx=0;entryDy=0;entryPerimeter=0;" parent="WIyWlLk6GJQsqaUBKTNV-1" target="xDo69KHjv8QRunsJBPLD-20" edge="1">
          <mxGeometry width="160" relative="1" as="geometry">
            <mxPoint x="380" y="-740" as="sourcePoint" />
            <mxPoint x="540" y="-740" as="targetPoint" />
          </mxGeometry>
        </mxCell>
        <mxCell id="K66IiPiDPM6lajpn4Y2S-0" value="&lt;div&gt;ventanaPrincipal&lt;/div&gt;" style="swimlane;fontStyle=1;align=center;verticalAlign=top;childLayout=stackLayout;horizontal=1;startSize=26;horizontalStack=0;resizeParent=1;resizeParentMax=0;resizeLast=0;collapsible=1;marginBottom=0;whiteSpace=wrap;html=1;" vertex="1" parent="WIyWlLk6GJQsqaUBKTNV-1">
          <mxGeometry x="510" y="-595" width="240" height="250" as="geometry" />
        </mxCell>
        <mxCell id="K66IiPiDPM6lajpn4Y2S-1" value="&lt;div style=&quot;&quot;&gt;&lt;span style=&quot;white-space: pre;&quot;&gt;empleadoField: JTextField &lt;br&gt;&lt;/span&gt;&lt;span style=&quot;white-space: pre;&quot;&gt;idEmpleadoField: JTextField &lt;br&gt;&lt;/span&gt;&lt;span style=&quot;white-space: pre;&quot;&gt;bebidaReservadaField: JTextField&lt;br&gt;&lt;/span&gt;&lt;span style=&quot;white-space: pre;&quot;&gt;seleccionBebidaButton: JButton &lt;br&gt;&lt;/span&gt;&lt;span style=&quot;white-space: pre;&quot;&gt;bebidaSeleccionada: boolean[]&lt;/span&gt;&lt;/div&gt;" style="text;strokeColor=none;fillColor=none;align=left;verticalAlign=top;spacingLeft=4;spacingRight=4;overflow=hidden;rotatable=0;points=[[0,0.5],[1,0.5]];portConstraint=eastwest;whiteSpace=wrap;html=1;" vertex="1" parent="K66IiPiDPM6lajpn4Y2S-0">
          <mxGeometry y="26" width="240" height="84" as="geometry" />
        </mxCell>
        <mxCell id="K66IiPiDPM6lajpn4Y2S-2" value="" style="line;strokeWidth=1;fillColor=none;align=left;verticalAlign=middle;spacingTop=-1;spacingLeft=3;spacingRight=3;rotatable=0;labelPosition=right;points=[];portConstraint=eastwest;strokeColor=inherit;" vertex="1" parent="K66IiPiDPM6lajpn4Y2S-0">
          <mxGeometry y="110" width="240" height="18" as="geometry" />
        </mxCell>
        <mxCell id="K66IiPiDPM6lajpn4Y2S-3" value="&lt;div style=&quot;&quot;&gt;&lt;div&gt;&lt;span style=&quot;white-space: pre;&quot;&gt;+ ventanaPrincipal()&lt;br&gt;&lt;/span&gt;&lt;span style=&quot;white-space: pre;&quot;&gt;+ mostrarVentana() &lt;/span&gt;&lt;/div&gt;&lt;div&gt;&lt;span style=&quot;white-space: pre;&quot;&gt;+ crearBotonConIcono()&lt;/span&gt;&lt;/div&gt;&lt;div&gt;&lt;span style=&quot;white-space: pre;&quot;&gt;+ openNewWindow()&lt;/span&gt;&lt;/div&gt;&lt;div&gt;&lt;font style=&quot;font-size: 12px; text-align: right; white-space: pre;&quot;&gt;+ &lt;/font&gt;&lt;font style=&quot;font-size: 12px; text-align: right; white-space: pre;&quot;&gt;JPanel createInputPanel() &lt;/font&gt;&lt;/div&gt;&lt;div&gt;&lt;font style=&quot;font-size: 12px; text-align: right; white-space: pre;&quot;&gt;+ &lt;/font&gt;&lt;font style=&quot;font-size: 12px; text-align: right; white-space: pre;&quot;&gt;limpiarCampos() &lt;/font&gt;&lt;font style=&quot;font-size: 12px; text-align: right; white-space: pre;&quot;&gt;&lt;br&gt;&lt;/font&gt;&lt;span style=&quot;white-space: pre;&quot;&gt;+ createButtonPanel()&lt;br&gt;&lt;/span&gt;&lt;br&gt;&lt;/div&gt;&lt;/div&gt;" style="text;strokeColor=none;fillColor=none;align=left;verticalAlign=top;spacingLeft=4;spacingRight=4;overflow=hidden;rotatable=0;points=[[0,0.5],[1,0.5]];portConstraint=eastwest;whiteSpace=wrap;html=1;" vertex="1" parent="K66IiPiDPM6lajpn4Y2S-0">
          <mxGeometry y="128" width="240" height="122" as="geometry" />
        </mxCell>
      </root>
    </mxGraphModel>
  </diagram>
</mxfile>
